<svg width="125" height="129" viewBox="0 0 125 129" fill="none" xmlns="http://www.w3.org/2000/svg">
	<g clip-path="url(#clip0_59_174)">
		<g clip-path="url(#clip1_59_174)">
			<path
				d="M95.7031 0H29.2969C13.1167 0 0 13.5364 0 30.2344V98.7656C0 115.464 13.1167 129 29.2969 129H95.7031C111.883 129 125 115.464 125 98.7656V30.2344C125 13.5364 111.883 0 95.7031 0Z"
				fill="#242938" />
			<path
				d="M41.3792 56.4178C41.3792 57.6444 41.5078 58.6386 41.7326 59.3682C41.9896 60.0974 42.3108 60.893 42.7606 61.7552C42.9212 62.0203 42.9854 62.2853 42.9854 62.5176C42.9854 62.8492 42.7927 63.1808 42.3751 63.5118L40.3513 64.9046C40.0622 65.1032 39.7731 65.203 39.5161 65.203C39.1949 65.203 38.8736 65.0372 38.5524 64.7389C38.1026 64.2415 37.7171 63.7109 37.3959 63.1808C37.0747 62.6169 36.7535 61.987 36.4001 61.2246C33.8944 64.2748 30.7463 65.7996 26.9557 65.7996C24.2573 65.7996 22.105 65.0039 20.531 63.4126C18.9569 61.8212 18.1538 59.6998 18.1538 57.0477C18.1538 54.2294 19.1175 51.9422 21.077 50.2182C23.0366 48.4943 25.6386 47.6324 28.9474 47.6324C30.0396 47.6324 31.1639 47.7319 32.3525 47.8976C33.5411 48.0634 34.7618 48.3286 36.0467 48.627V46.2069C36.0467 43.6874 35.5328 41.9303 34.5369 40.9026C33.5089 39.8749 31.7743 39.3776 29.3007 39.3776C28.1764 39.3776 27.0199 39.5102 25.8313 39.8086C24.6428 40.107 23.4863 40.4716 22.362 40.9357C21.848 41.1678 21.4625 41.3004 21.2376 41.3667C21.0128 41.433 20.8522 41.4662 20.7237 41.4662C20.274 41.4662 20.0491 41.1347 20.0491 40.4385V38.814C20.0491 38.2836 20.1133 37.8858 20.274 37.6537C20.4346 37.4217 20.7237 37.1896 21.1734 36.9575C22.2978 36.3608 23.647 35.8636 25.221 35.4657C26.7951 35.0347 28.4655 34.8358 30.2323 34.8358C34.055 34.8358 36.8498 35.7309 38.6487 37.5211C40.4156 39.3113 41.315 42.0298 41.315 45.6764V56.4178H41.3792ZM28.337 61.4569C29.3971 61.4569 30.4893 61.2579 31.6458 60.8598C32.8022 60.4622 33.8302 59.7325 34.6975 58.7383C35.2115 58.1085 35.597 57.4121 35.7897 56.6164C35.9825 55.8207 36.111 54.8593 36.111 53.7325V52.3397C35.1794 52.1079 34.1835 51.9089 33.1556 51.7764C32.1276 51.6438 31.1318 51.5773 30.1359 51.5773C27.9836 51.5773 26.4096 52.0087 25.3495 52.9036C24.2894 53.7985 23.7754 55.0583 23.7754 56.7162C23.7754 58.2742 24.1609 59.4342 24.964 60.2299C25.735 61.0588 26.8593 61.4569 28.337 61.4569ZM54.1323 65.0372C53.5542 65.0372 53.1685 64.9374 52.9116 64.7056C52.6548 64.5066 52.4297 64.0425 52.2373 63.4126L44.688 37.7863C44.4953 37.1233 44.3989 36.6923 44.3989 36.4603C44.3989 35.9298 44.6559 35.6315 45.1699 35.6315H48.318C48.9282 35.6315 49.3462 35.7309 49.5708 35.963C49.8276 36.1619 50.0205 36.626 50.2134 37.2559L55.6099 59.2024L60.6216 37.2559C60.7822 36.5929 60.9746 36.1619 61.2319 35.963C61.4888 35.7641 61.9385 35.6315 62.5166 35.6315H65.0864C65.6968 35.6315 66.1147 35.7309 66.3716 35.963C66.6284 36.1619 66.8535 36.626 66.9819 37.2559L72.0576 59.4675L77.6147 37.2559C77.8076 36.5929 78.0327 36.1619 78.2573 35.963C78.5142 35.7641 78.9321 35.6315 79.5103 35.6315H82.4976C83.0117 35.6315 83.3008 35.8967 83.3008 36.4603C83.3008 36.626 83.2686 36.7918 83.2363 36.9907C83.2046 37.1896 83.1401 37.4548 83.0117 37.8195L75.27 63.4458C75.0771 64.109 74.852 64.5398 74.5952 64.7389C74.3384 64.9374 73.9204 65.0704 73.3745 65.0704H70.6118C70.0015 65.0704 69.584 64.9706 69.3271 64.7389C69.0698 64.5065 68.8452 64.0757 68.7168 63.4126L63.7373 42.0298L58.7905 63.3793C58.6299 64.0425 58.437 64.4733 58.1802 64.7056C57.9228 64.9374 57.4731 65.0372 56.895 65.0372H54.1323ZM95.4116 65.9321C93.7412 65.9321 92.0708 65.7331 90.4643 65.3355C88.8584 64.9374 87.6055 64.5066 86.77 64.0092C86.2563 63.7109 85.9028 63.3793 85.7744 63.081C85.646 62.7827 85.5815 62.4511 85.5815 62.1528V60.4622C85.5815 59.7658 85.8384 59.4342 86.3203 59.4342C86.5132 59.4342 86.7061 59.4675 86.8984 59.534C87.0913 59.6 87.3804 59.7325 87.7017 59.8656C88.7939 60.3624 89.9824 60.7605 91.2354 61.0256C92.5205 61.2911 93.7729 61.4237 95.0581 61.4237C97.082 61.4237 98.6558 61.0588 99.748 60.3297C100.84 59.6 101.418 58.5393 101.418 57.1803C101.418 56.2521 101.129 55.4891 100.551 54.8593C99.9731 54.2294 98.8809 53.666 97.3066 53.1354L92.6489 51.6438C90.3037 50.8814 88.5688 49.7541 87.5088 48.2623C86.4487 46.8036 85.9028 45.1792 85.9028 43.4553C85.9028 42.0629 86.1919 40.8363 86.77 39.7754C87.3481 38.7146 88.1191 37.7863 89.083 37.057C90.0469 36.2945 91.1392 35.7309 92.4238 35.3331C93.709 34.9353 95.0581 34.7695 96.4717 34.7695C97.1782 34.7695 97.917 34.8027 98.624 34.9022C99.3628 35.0016 100.037 35.1342 100.712 35.2668C101.354 35.4326 101.965 35.5983 102.543 35.7972C103.121 35.9961 103.571 36.195 103.892 36.394C104.342 36.6592 104.663 36.9244 104.856 37.2227C105.048 37.488 105.145 37.8526 105.145 38.3168V39.8749C105.145 40.5711 104.888 40.9357 104.406 40.9357C104.149 40.9357 103.731 40.8032 103.186 40.5379C101.354 39.676 99.2983 39.245 97.0176 39.245C95.1865 39.245 93.7412 39.5434 92.7451 40.1733C91.7495 40.8032 91.2354 41.7646 91.2354 43.1237C91.2354 44.052 91.5566 44.8477 92.1992 45.4775C92.8413 46.1074 94.0303 46.7373 95.7329 47.3009L100.294 48.7927C102.607 49.5552 104.278 50.6159 105.273 51.9754C106.269 53.3344 106.751 54.8925 106.751 56.6164C106.751 58.0419 106.462 59.335 105.916 60.4622C105.338 61.5894 104.567 62.5836 103.571 63.3793C102.575 64.2082 101.386 64.8049 100.005 65.2362C98.5596 65.7003 97.0498 65.9321 95.4116 65.9321Z"
				fill="white" />
			<path fill-rule="evenodd" clip-rule="evenodd"
				d="M101.483 82.044C90.9141 90.0999 75.5591 94.3766 62.3559 94.3766C43.8528 94.3766 27.1806 87.3149 14.588 75.5794C13.5922 74.6512 14.4917 73.3914 15.6803 74.1206C29.3007 82.2758 46.1014 87.2156 63.4805 87.2156C75.2056 87.2156 88.0874 84.6961 99.9409 79.5245C101.708 78.6955 103.217 80.7177 101.483 82.044Z"
				fill="#FF9900" />
			<path fill-rule="evenodd" clip-rule="evenodd"
				d="M105.884 76.8724C104.535 75.082 96.9536 76.0102 93.5161 76.4411C92.4882 76.5741 92.3276 75.6454 93.2592 74.9495C99.2983 70.5736 109.225 71.8334 110.381 73.2917C111.538 74.7837 110.06 85.0276 104.406 89.9342C103.539 90.6966 102.704 90.2985 103.089 89.3043C104.374 86.0223 107.233 78.629 105.884 76.8724Z"
				fill="#FF9900" />
		</g>
	</g>
	<defs>
		<clipPath id="clip0_59_174">
			<rect width="125" height="129" fill="white" />
		</clipPath>
		<clipPath id="clip1_59_174">
			<rect width="125" height="129" fill="white" />
		</clipPath>
	</defs>
</svg>