<svg width="125" height="128" viewBox="0 0 125 128" fill="none" xmlns="http://www.w3.org/2000/svg">
	<g clip-path="url(#clip0_59_154)">
		<path
			d="M95.7031 0H29.2969C13.1167 0 0 13.4315 0 30V98C0 114.569 13.1167 128 29.2969 128H95.7031C111.883 128 125 114.569 125 98V30C125 13.4315 111.883 0 95.7031 0Z"
			fill="#0277BD" />
		<path d="M26.2464 51.3255L27.6443 67.2965H62.5469V51.3255H26.2464Z" fill="#EBEBEB" />
		<path d="M62.5464 19H62.4927H23.4375L24.8553 34.9711H62.5464V19Z" fill="#EBEBEB" />
		<path
			d="M62.5464 109.42V92.804L62.478 92.8225L45.1081 88.02L43.9977 75.282H35.5571H28.3411L30.5261 100.359L62.4746 109.441L62.5464 109.42Z"
			fill="#EBEBEB" />
		<path
			d="M81.6982 67.2965L79.8877 88.0095L62.4927 92.8175V109.433L94.4668 100.359L94.7012 97.6605L98.3662 55.6145L98.7466 51.3255L101.562 19H62.4927V34.9712H84.4697L83.0508 51.3255H62.4927V67.2965H81.6982Z"
			fill="white" />
	</g>
	<defs>
		<clipPath id="clip0_59_154">
			<rect width="125" height="128" fill="white" />
		</clipPath>
	</defs>
</svg>