<svg width="125" height="128" viewBox="0 0 125 128" fill="none" xmlns="http://www.w3.org/2000/svg">
	<g clip-path="url(#clip0_59_171)">
		<g clip-path="url(#clip1_59_171)">
			<path
				d="M95.7031 0H29.2969C13.1167 0 0 13.4315 0 30V98C0 114.569 13.1167 128 29.2969 128H95.7031C111.883 128 125 114.569 125 98V30C125 13.4315 111.883 0 95.7031 0Z"
				fill="#242938" />
			<path
				d="M42.6999 43.5025L37.0172 37.6806L37.0392 79.7315L37.1079 81.695C37.1354 82.623 37.307 83.6635 37.5816 84.7465L82.5913 101.003L93.8521 95.898L93.8618 95.881L42.6972 43.5025H42.6999Z"
				fill="#00C4B3" />
			<path
				d="M37.583 84.7465H37.5872C37.583 84.7295 37.5762 84.71 37.5679 84.69C37.5775 84.7115 37.5775 84.7325 37.5816 84.7465H37.583ZM93.8413 95.898L82.5801 101.003L37.5775 84.7465C38.4358 88.127 40.3406 91.9265 42.3868 93.9995L57.0674 108.958L89.7353 109L93.8276 95.898H93.8413Z"
				fill="#22D3C5" />
			<path
				d="M37.1711 37.682L19.6712 64.7455C18.2183 66.3345 18.9434 69.6135 21.282 72.0295L31.384 82.4585L37.7341 84.7505C37.4594 83.6705 37.2864 82.641 37.2603 81.699L37.1917 79.736L37.1711 37.6848V37.682Z"
				fill="#0075C9" />
			<path
				d="M82.9619 38.2234C81.9048 37.9492 80.8911 37.7763 79.978 37.7495L77.9482 37.6736L37.0172 37.6834L93.8604 95.8825L98.854 84.351L82.9649 38.2262L82.9619 38.2234Z"
				fill="#0075C9" />
			<path
				d="M82.9097 38.2136C82.9277 38.2206 82.9468 38.2248 82.9619 38.2277V38.222C82.9443 38.2178 82.9277 38.2178 82.9097 38.2108V38.2136ZM91.9941 43.1608C89.9273 41.0303 86.2676 39.0827 82.9619 38.2277L98.8511 84.3485L93.8521 95.8795L106.05 91.8885L106.077 57.6435L91.9927 43.1594L91.9941 43.1608Z"
				fill="#00A8E1" />
			<path
				d="M80.7344 31.7617L70.5723 21.4117C68.2017 19.0253 64.9995 18.28 63.4614 19.765L37.0337 37.6807L77.9648 37.6708L79.9941 37.7467C80.9077 37.7749 81.9224 37.9464 82.9785 38.2207L80.7373 31.7589L80.7344 31.7617Z"
				fill="#00C4B3" />
		</g>
	</g>
	<defs>
		<clipPath id="clip0_59_171">
			<rect width="125" height="128" fill="white" />
		</clipPath>
		<clipPath id="clip1_59_171">
			<rect width="125" height="128" fill="white" />
		</clipPath>
	</defs>
</svg>