<svg width="125" height="128" viewBox="0 0 125 128" fill="none" xmlns="http://www.w3.org/2000/svg">
	<g clip-path="url(#clip0_59_198)">
		<g clip-path="url(#clip1_59_198)">
			<path
				d="M95.7031 0H29.2969C13.1167 0 0 13.4315 0 30V98C0 114.569 13.1167 128 29.2969 128H95.7031C111.883 128 125 114.569 125 98V30C125 13.4315 111.883 0 95.7031 0Z"
				fill="#242938" />
			<path
				d="M70.7686 19.0308L98.0024 19L52.3115 65.763L40.4039 77.8885L26.8555 63.998L70.7686 19.0308ZM70.5151 60.7845C70.8686 60.3065 71.519 60.5425 72.0127 60.481L97.979 60.4875L74.3135 84.6975L60.6948 70.8375L70.5151 60.7845Z"
				fill="#44D1FD" />
			<path d="M47.1198 84.721L60.6948 70.8375L74.3135 84.6975L74.3701 84.759L60.6982 98.629L47.1198 84.721Z"
				fill="#1FBCFD" />
			<path
				d="M60.6982 98.629L74.3701 84.759L97.9888 108.969C89.0923 108.989 80.1987 108.962 71.3057 108.982C70.7988 109.098 70.4853 108.624 70.1616 108.33L60.6982 98.629Z"
				fill="#08589C" />
		</g>
	</g>
	<defs>
		<clipPath id="clip0_59_198">
			<rect width="125" height="128" fill="white" />
		</clipPath>
		<clipPath id="clip1_59_198">
			<rect width="125" height="128" fill="white" />
		</clipPath>
	</defs>
</svg>