<svg width="125" height="128" viewBox="0 0 125 128" fill="none" xmlns="http://www.w3.org/2000/svg">
	<g clip-path="url(#clip0_59_197)">
		<g clip-path="url(#clip1_59_197)">
			<path
				d="M95.7031 0H29.2969C13.1167 0 0 13.4315 0 30V98C0 114.569 13.1167 128 29.2969 128H95.7031C111.883 128 125 114.569 125 98V30C125 13.4315 111.883 0 95.7031 0Z"
				fill="#F03C2E" />
			<mask id="mask0_59_197" style="mask-type:luminance" maskUnits="userSpaceOnUse" x="13" y="14" width="99"
				height="100">
				<path d="M111.328 14H13.6719V114H111.328V14Z" fill="white" />
			</mask>
			<g mask="url(#mask0_59_197)">
				<path
					d="M109.485 59.5469L66.8485 15.8874C66.265 15.2892 65.5716 14.8148 64.8089 14.4911C64.0458 14.1673 63.2279 14.0007 62.4022 14.0007C61.5765 14.0007 60.7587 14.1673 59.9955 14.4911C59.2328 14.8148 58.5394 15.2892 57.9559 15.8874L49.1058 24.9499L60.3363 36.4499C62.9486 35.5124 65.9393 36.153 68.0204 38.2842C69.0111 39.3006 69.703 40.5818 70.0165 41.9815C70.3299 43.3812 70.2528 44.843 69.7933 46.1999L80.618 57.2844C83.2367 56.3594 86.2577 56.9559 88.348 59.1029C89.0433 59.8149 89.5946 60.6599 89.9706 61.5899C90.3465 62.5199 90.5399 63.5164 90.5399 64.5229C90.5394 65.5294 90.3461 66.5259 89.9696 67.4559C89.5931 68.3854 89.0419 69.2304 88.3465 69.9419C87.6517 70.6539 86.8265 71.2179 85.9183 71.6029C85.0101 71.9884 84.037 72.1864 83.0541 72.1859C82.0712 72.1859 81.0975 71.9874 80.1898 71.6024C79.2816 71.2169 78.4564 70.6524 77.7616 69.9404C75.5643 67.6904 75.0214 64.3779 76.1322 61.6059L66.037 51.2684V78.4719C66.7699 78.8429 67.4393 79.3329 68.0204 79.9219C68.7152 80.6334 69.2665 81.4779 69.6429 82.4079C70.0189 83.3374 70.2123 84.3339 70.2123 85.3404C70.2123 86.3469 70.0189 87.3434 69.6429 88.2729C69.2665 89.2029 68.7152 90.0479 68.0204 90.7594C67.3256 91.4709 66.5004 92.0354 65.5926 92.4204C64.6844 92.8054 63.7113 93.0039 62.7289 93.0039C61.746 93.0039 60.7728 92.8054 59.8651 92.4204C58.9569 92.0354 58.1317 91.4709 57.4369 90.7594C56.7411 90.0479 56.1893 89.2034 55.8129 88.2739C55.4359 87.3439 55.2421 86.3469 55.2421 85.3404C55.2421 84.3339 55.4359 83.3374 55.8129 82.4074C56.1893 81.4774 56.7411 80.6329 57.4369 79.9219C58.16 79.1844 58.9628 78.6249 59.8876 78.2499V50.7934C58.9964 50.4184 58.16 49.8655 57.4369 49.1217C56.3861 48.047 55.6717 46.6762 55.3846 45.1841C55.098 43.6919 55.2513 42.1461 55.8256 40.7436L44.7478 29.4061L15.5119 59.3124C14.9274 59.9104 14.4637 60.6204 14.1473 61.4019C13.8309 62.1834 13.668 63.0209 13.668 63.8669C13.668 64.7129 13.8309 65.5509 14.1473 66.3324C14.4637 67.1139 14.9274 67.8239 15.5119 68.4219L58.1512 112.078C58.7347 112.676 59.4281 113.15 60.1908 113.474C60.954 113.798 61.7718 113.964 62.5975 113.964C63.4232 113.964 64.2411 113.798 65.0043 113.474C65.767 113.15 66.4603 112.676 67.0438 112.078L109.485 68.6874C110.069 68.0894 110.533 67.3794 110.849 66.5979C111.166 65.8164 111.328 64.9789 111.328 64.1329C111.328 63.2869 111.166 62.4489 110.849 61.6674C110.533 60.8859 110.069 60.1759 109.485 59.5779"
					fill="white" />
			</g>
		</g>
	</g>
	<defs>
		<clipPath id="clip0_59_197">
			<rect width="125" height="128" fill="white" />
		</clipPath>
		<clipPath id="clip1_59_197">
			<rect width="125" height="128" fill="white" />
		</clipPath>
	</defs>
</svg>