<svg width="65" height="65" viewBox="0 0 65 65" fill="none" xmlns="http://www.w3.org/2000/svg">
	<g clip-path="url(#clip0_88_343)">
		<path
			d="M49.7656 0H15.2344C6.82066 0 0 6.82066 0 15.2344V49.7656C0 58.1793 6.82066 65 15.2344 65H49.7656C58.1793 65 65 58.1793 65 49.7656V15.2344C65 6.82066 58.1793 0 49.7656 0Z"
			fill="#242938" />
		<path
			d="M32.5003 7.61719C18.4791 7.61719 7.10938 18.9848 7.10938 33.0081C7.10938 44.2264 14.3846 53.7438 24.4732 57.1012C25.742 57.3364 26.208 56.5505 26.208 55.8799C26.208 55.2744 26.1843 53.2744 26.1734 51.1527C19.1098 52.6886 17.6192 48.1569 17.6192 48.1569C16.4642 45.222 14.8 44.4417 14.8 44.4417C12.4963 42.8657 14.9737 42.8982 14.9737 42.8982C17.5234 43.0772 18.8659 45.5147 18.8659 45.5147C21.1305 49.3965 24.8058 48.2742 26.2547 47.6255C26.4827 45.9842 27.1405 44.8642 27.8667 44.2302C22.2271 43.5881 16.2986 41.4108 16.2986 31.6819C16.2986 28.9098 17.2904 26.6447 18.9147 24.8666C18.651 24.2271 17.7819 21.6446 19.1607 18.1472C19.1607 18.1472 21.2928 17.4648 26.145 20.7499C28.1704 20.1873 30.3423 19.9052 32.5003 19.8955C34.658 19.9052 36.8319 20.1873 38.8609 20.7499C43.7072 17.4648 45.8364 18.1472 45.8364 18.1472C47.2184 21.6446 46.3491 24.2271 46.0853 24.8666C47.7133 26.6447 48.6985 28.9098 48.6985 31.6819C48.6985 41.4342 42.7586 43.5815 37.1046 44.2099C38.0154 44.998 38.8268 46.5431 38.8268 48.912C38.8268 52.3093 38.7974 55.0436 38.7974 55.8799C38.7974 56.5556 39.2544 57.3473 40.5415 57.0979C50.6246 53.7367 57.8906 44.2226 57.8906 33.0081C57.8906 18.9848 46.5225 7.61719 32.5003 7.61719ZM16.6191 43.7869C16.5631 43.9131 16.3647 43.9509 16.1839 43.8643C15.9997 43.7816 15.8963 43.6094 15.956 43.483C16.0107 43.353 16.2095 43.3169 16.3933 43.404C16.5779 43.4868 16.683 43.6605 16.6191 43.7869ZM17.868 44.9013C17.7469 45.0138 17.5102 44.9615 17.3496 44.784C17.1835 44.607 17.1524 44.3704 17.2752 44.2564C17.4 44.1441 17.6296 44.1967 17.7961 44.3737C17.9622 44.5529 17.9946 44.7878 17.868 44.9013ZM18.7248 46.3272C18.5693 46.4354 18.3149 46.3341 18.1576 46.1081C18.0021 45.8824 18.0021 45.6117 18.161 45.5031C18.3187 45.3946 18.5693 45.4921 18.7286 45.7163C18.8838 45.9459 18.8838 46.2168 18.7248 46.3272ZM20.1739 47.9786C20.0348 48.132 19.7383 48.0909 19.5214 47.8814C19.2994 47.6767 19.2375 47.3863 19.3771 47.2327C19.518 47.0788 19.8161 47.1222 20.0348 47.3299C20.2551 47.534 20.3223 47.8268 20.1739 47.9786ZM22.0467 48.536C21.9853 48.735 21.6998 48.8254 21.4122 48.7409C21.1251 48.6538 20.9371 48.4209 20.9951 48.2198C21.0548 48.0198 21.3416 47.9256 21.6313 48.016C21.9181 48.1025 22.1064 48.3339 22.0467 48.536ZM24.178 48.7726C24.1852 48.9818 23.9413 49.1555 23.6394 49.1593C23.3358 49.1662 23.0903 48.9965 23.0869 48.7906C23.0869 48.5791 23.3253 48.4072 23.6289 48.4022C23.9308 48.3963 24.178 48.5644 24.178 48.7726ZM26.2717 48.6924C26.308 48.8965 26.0983 49.1065 25.7984 49.1623C25.5036 49.2162 25.2307 49.09 25.1933 48.8874C25.1567 48.6779 25.3703 48.4682 25.6646 48.4138C25.965 48.3618 26.2336 48.4847 26.2717 48.6924Z"
			fill="white" />
	</g>
	<defs>
		<clipPath id="clip0_88_343">
			<rect width="65" height="65" fill="white" />
		</clipPath>
	</defs>
</svg>