<svg width="125" height="128" viewBox="0 0 125 128" fill="none" xmlns="http://www.w3.org/2000/svg">
	<g clip-path="url(#clip0_59_195)">
		<g clip-path="url(#clip1_59_195)">
			<path
				d="M95.7031 0H29.2969C13.1167 0 0 13.4315 0 30V98C0 114.569 13.1167 128 29.2969 128H95.7031C111.883 128 125 114.569 125 98V30C125 13.4315 111.883 0 95.7031 0Z"
				fill="#E14E1D" />
			<path
				d="M23.4375 19L27.6415 67.2965H81.6992L79.8853 88.0115L62.48 92.8305L45.1074 88.0185L43.9459 74.7175H28.2905L30.5291 100.358L62.4761 109.444L94.4634 100.358L98.752 51.3275H41.9063L40.479 34.9724H100.118H100.166L101.562 19H23.4375Z"
				fill="white" />
			<path d="M62.5 19H23.4375L27.6415 67.2965H62.5V51.3275H41.9063L40.479 34.9724H62.5V19Z" fill="#EBEBEB" />
			<path
				d="M62.5 92.8235L62.48 92.8305L45.1074 88.0185L43.9459 74.7175H28.2904L30.5291 100.358L62.476 109.444L62.5 109.437V92.8235Z"
				fill="#EBEBEB" />
		</g>
	</g>
	<defs>
		<clipPath id="clip0_59_195">
			<rect width="125" height="128" fill="white" />
		</clipPath>
		<clipPath id="clip1_59_195">
			<rect width="125" height="128" fill="white" />
		</clipPath>
	</defs>
</svg>