<svg width="50" height="50" viewBox="0 0 50 50" fill="none" xmlns="http://www.w3.org/2000/svg">
	<g clip-path="url(#clip0_59_194)">
		<g clip-path="url(#clip1_59_194)">
			<path
				d="M38.2812 0H11.7188C5.24666 0 0 5.24666 0 11.7188V38.2812C0 44.7533 5.24666 50 11.7188 50H38.2812C44.7533 50 50 44.7533 50 38.2812V11.7188C50 5.24666 44.7533 0 38.2812 0Z"
				fill="url(#paint0_radial_59_194)" />
			<path
				d="M38.2812 0H11.7188C5.24666 0 0 5.24666 0 11.7188V38.2812C0 44.7533 5.24666 50 11.7188 50H38.2812C44.7533 50 50 44.7533 50 38.2812V11.7188C50 5.24666 44.7533 0 38.2812 0Z"
				fill="url(#paint1_radial_59_194)" />
			<path
				d="M25.0018 5.46875C19.6975 5.46875 19.0317 5.49195 16.9484 5.58676C14.8691 5.68197 13.4498 6.01115 12.2079 6.49416C10.9233 6.99301 9.83361 7.66035 8.74801 8.74637C7.66156 9.83199 6.99424 10.9217 6.49375 12.2059C6.00953 13.4482 5.67994 14.8679 5.58635 16.9463C5.49316 19.0297 5.46875 19.6957 5.46875 25.0002C5.46875 30.3047 5.49234 30.9684 5.58676 33.0516C5.68238 35.1309 6.01156 36.5502 6.49416 37.792C6.99342 39.0768 7.66074 40.1664 8.74678 41.252C9.83199 42.3385 10.9217 43.0074 12.2055 43.5062C13.4482 43.9893 14.8679 44.3184 16.9467 44.4137C19.0301 44.5084 19.6953 44.5316 24.9994 44.5316C30.3043 44.5316 30.968 44.5084 33.0512 44.4137C35.1305 44.3184 36.5514 43.9893 37.7941 43.5062C39.0783 43.0074 40.1664 42.3385 41.2516 41.252C42.3381 40.1664 43.0053 39.0768 43.5059 37.7926C43.9859 36.5502 44.3156 35.1305 44.4133 33.052C44.5068 30.9688 44.5312 30.3047 44.5312 25.0002C44.5312 19.6957 44.5068 19.0301 44.4133 16.9467C44.3156 14.8674 43.9859 13.4482 43.5059 12.2063C43.0053 10.9217 42.3381 9.83199 41.2516 8.74637C40.1652 7.65994 39.0787 6.99262 37.793 6.49416C36.5479 6.01115 35.1277 5.68197 33.0484 5.58676C30.965 5.49195 30.3018 5.46875 24.9957 5.46875H25.0018ZM23.2496 8.98848C23.7697 8.98768 24.35 8.98848 25.0018 8.98848C30.2168 8.98848 30.8348 9.00721 32.8941 9.10078C34.7984 9.18787 35.832 9.50605 36.5205 9.7734C37.432 10.1274 38.0818 10.5506 38.765 11.2342C39.4486 11.9178 39.8717 12.5688 40.2266 13.4803C40.4939 14.168 40.8125 15.2015 40.8992 17.1058C40.9928 19.1648 41.0131 19.7832 41.0131 24.9957C41.0131 30.2082 40.9928 30.8268 40.8992 32.8855C40.8121 34.7898 40.4939 35.8234 40.2266 36.5111C39.8727 37.4227 39.4486 38.0717 38.765 38.7549C38.0814 39.4385 37.4324 39.8615 36.5205 40.2156C35.8328 40.4842 34.7984 40.8016 32.8941 40.8887C30.8352 40.9822 30.2168 41.0025 25.0018 41.0025C19.7865 41.0025 19.1684 40.9822 17.1095 40.8887C15.2052 40.8008 14.1716 40.4826 13.4828 40.2152C12.5713 39.8611 11.9202 39.4381 11.2366 38.7545C10.553 38.0709 10.1298 37.4215 9.77502 36.5096C9.5077 35.8219 9.18908 34.7883 9.10242 32.884C9.00883 30.825 8.99012 30.2066 8.99012 24.9908C8.99012 19.7752 9.00883 19.1599 9.10242 17.101C9.18949 15.1966 9.5077 14.1631 9.77502 13.4746C10.129 12.5631 10.553 11.9121 11.2366 11.2285C11.9202 10.5449 12.5713 10.1217 13.4828 9.76689C14.1712 9.49834 15.2052 9.18094 17.1095 9.09346C18.9113 9.01209 19.6096 8.98768 23.2496 8.98359V8.98848ZM35.4275 12.2315C34.1336 12.2315 33.0838 13.2801 33.0838 14.5745C33.0838 15.8684 34.1336 16.9182 35.4275 16.9182C36.7215 16.9182 37.7713 15.8684 37.7713 14.5745C37.7713 13.2805 36.7215 12.2307 35.4275 12.2307V12.2315ZM25.0018 14.97C19.4626 14.97 14.9716 19.461 14.9716 25.0002C14.9716 30.5395 19.4626 35.0283 25.0018 35.0283C30.541 35.0283 35.0305 30.5395 35.0305 25.0002C35.0305 19.461 30.5406 14.97 25.0014 14.97H25.0018ZM25.0018 18.4897C28.5973 18.4897 31.5123 21.4043 31.5123 25.0002C31.5123 28.5957 28.5973 31.5107 25.0018 31.5107C21.4061 31.5107 18.4913 28.5957 18.4913 25.0002C18.4913 21.4043 21.4061 18.4897 25.0018 18.4897Z"
				fill="white" />
		</g>
	</g>
	<defs>
		<radialGradient id="paint0_radial_59_194" cx="0" cy="0" r="1" gradientUnits="userSpaceOnUse"
			gradientTransform="translate(13.2813 53.851) rotate(-90) scale(49.5537 46.0889)">
			<stop stop-color="#FFDD55" />
			<stop offset="0.1" stop-color="#FFDD55" />
			<stop offset="0.5" stop-color="#FF543E" />
			<stop offset="1" stop-color="#C837AB" />
		</radialGradient>
		<radialGradient id="paint1_radial_59_194" cx="0" cy="0" r="1" gradientUnits="userSpaceOnUse"
			gradientTransform="translate(-8.37527 3.60191) rotate(78.6806) scale(22.1508 91.3063)">
			<stop stop-color="#3771C8" />
			<stop offset="0.128" stop-color="#3771C8" />
			<stop offset="1" stop-color="#6600FF" stop-opacity="0" />
		</radialGradient>
		<clipPath id="clip0_59_194">
			<rect width="50" height="50" fill="white" />
		</clipPath>
		<clipPath id="clip1_59_194">
			<rect width="50" height="50" fill="white" />
		</clipPath>
	</defs>
</svg>