<svg width="125" height="129" viewBox="0 0 125 129" fill="none" xmlns="http://www.w3.org/2000/svg">
	<g clip-path="url(#clip0_59_193)">
		<g clip-path="url(#clip1_59_193)">
			<path
				d="M95.7031 0H29.2969C13.1167 0 0 13.5364 0 30.2344V98.7656C0 115.464 13.1167 129 29.2969 129H95.7031C111.883 129 125 115.464 125 98.7656V30.2344C125 13.5364 111.883 0 95.7031 0Z"
				fill="#F0DB4F" />
			<path
				d="M32.867 107.802L42.433 101.827C44.2784 105.204 45.9571 108.061 49.9839 108.061C53.8438 108.061 56.2773 106.503 56.2773 100.442V59.2236H68.0244V100.613C68.0244 113.169 60.8926 118.885 50.4873 118.885C41.0905 118.885 35.6357 113.862 32.8669 107.801"
				fill="#323330" />
			<path
				d="M74.4048 106.503L83.9692 100.788C86.4873 105.031 89.7598 108.148 95.5488 108.148C100.417 108.148 103.52 105.637 103.52 102.173C103.52 98.0168 100.332 96.5444 94.9614 94.1206L92.0254 92.821C83.5503 89.0982 77.9282 84.4219 77.9282 74.5504C77.9282 65.4579 84.6411 58.5302 95.1299 58.5302C102.598 58.5302 107.968 61.215 111.827 68.2289L102.681 74.2904C100.667 70.567 98.4863 69.0951 95.1299 69.0951C91.6895 69.0951 89.5078 71.3466 89.5078 74.2904C89.5078 77.9271 91.6895 79.3995 96.7236 81.6514L99.6602 82.95C109.645 87.3668 115.267 91.8686 115.267 102C115.267 112.911 106.96 118.886 95.8008 118.886C84.8931 118.886 77.8447 113.517 74.4048 106.503Z"
				fill="#323330" />
		</g>
	</g>
	<defs>
		<clipPath id="clip0_59_193">
			<rect width="125" height="129" fill="white" />
		</clipPath>
		<clipPath id="clip1_59_193">
			<rect width="125" height="129" fill="white" />
		</clipPath>
	</defs>
</svg>