<svg width="125" height="129" viewBox="0 0 125 129" fill="none" xmlns="http://www.w3.org/2000/svg">
	<g clip-path="url(#clip0_59_192)">
		<g clip-path="url(#clip1_59_192)">
			<path
				d="M95.7031 0H29.2969C13.1167 0 0 13.5364 0 30.2344V98.7656C0 115.464 13.1167 129 29.2969 129H95.7031C111.883 129 125 115.464 125 98.7656V30.2344C125 13.5364 111.883 0 95.7031 0Z"
				fill="#242938" />
			<path fill-rule="evenodd" clip-rule="evenodd"
				d="M105.394 39.4628C105.425 39.5855 105.441 39.712 105.441 39.8391V59.592C105.441 59.8454 105.377 60.0944 105.256 60.3136C105.135 60.5333 104.96 60.7152 104.75 60.8411L88.9072 70.3861V89.3053C88.9072 89.8203 88.646 90.2955 88.2192 90.555L55.1489 110.477C55.0732 110.522 54.9907 110.55 54.9082 110.581C54.877 110.592 54.8481 110.612 54.8154 110.621C54.584 110.685 54.3413 110.685 54.1099 110.621C54.0723 110.61 54.0376 110.588 54.0015 110.574C53.9258 110.545 53.8467 110.52 53.7744 110.477L20.7111 90.555C20.5011 90.4285 20.3266 90.2466 20.2051 90.0274C20.0837 89.8082 20.0197 89.5588 20.0195 89.3053V30.0473C20.0195 29.9177 20.0367 29.7916 20.0677 29.6692C20.078 29.6278 20.1021 29.59 20.1159 29.5486C20.1417 29.473 20.1658 29.3956 20.2036 29.3254C20.2294 29.2786 20.2672 29.2408 20.2982 29.1976C20.3378 29.1399 20.3739 29.0805 20.4204 29.0301C20.4599 28.9887 20.5115 28.9581 20.5563 28.9222C20.6062 28.8789 20.6509 28.8321 20.7077 28.7979H20.7094L37.2419 18.8369C37.4512 18.7109 37.6885 18.6445 37.93 18.6445C38.1715 18.6445 38.4088 18.7109 38.6182 18.8369L55.1509 28.7979H55.1543C55.209 28.8339 55.2559 28.8789 55.3057 28.9203C55.3501 28.9563 55.3999 28.9887 55.4395 29.0283C55.4878 29.0805 55.5225 29.1399 55.5635 29.1976C55.5928 29.2408 55.6323 29.2786 55.6563 29.3254C55.6958 29.3974 55.7183 29.473 55.7461 29.5486C55.7598 29.59 55.7837 29.6278 55.7939 29.6711C55.8257 29.7937 55.8418 29.9202 55.8423 30.0473V67.0593L69.6187 58.7585V39.8373C69.6187 39.7112 69.6357 39.5834 69.667 39.4628C69.6792 39.4196 69.7012 39.3818 69.7153 39.3404C69.7427 39.2648 69.7666 39.1874 69.8047 39.1171C69.8306 39.0703 69.8682 39.0325 69.8975 38.9893C69.939 38.9317 69.9732 38.8723 70.0215 38.8219C70.061 38.7805 70.1108 38.7499 70.1558 38.7139C70.207 38.6707 70.252 38.6239 70.3071 38.5896H70.3091L86.8433 28.6287C87.0522 28.5024 87.2896 28.436 87.5313 28.436C87.773 28.436 88.0103 28.5024 88.2192 28.6287L104.752 38.5896C104.811 38.6257 104.855 38.6707 104.907 38.7121C104.95 38.7481 105 38.7805 105.039 38.8201C105.087 38.8723 105.122 38.9317 105.163 38.9893C105.194 39.0325 105.232 39.0703 105.256 39.1171C105.295 39.1874 105.318 39.2648 105.345 39.3404C105.361 39.3818 105.383 39.4196 105.394 39.4628ZM102.686 58.7585V42.3325L96.8999 45.8178L88.9072 50.6335V67.0593L102.687 58.7585H102.686ZM86.1528 88.4718V72.0354L78.291 76.7344L55.8403 90.1428V106.734L86.1528 88.4718ZM22.7755 32.5407V88.4718L53.0845 106.732V90.1443L37.2505 80.7666L37.2453 80.7631L37.2384 80.7595C37.1851 80.7273 37.1404 80.6804 37.0905 80.6406C37.0475 80.6049 36.9976 80.5761 36.9598 80.5363L36.9563 80.5313C36.9116 80.4859 36.8806 80.4305 36.8428 80.3796C36.8084 80.3312 36.7671 80.2899 36.7396 80.2395L36.7376 80.234C36.7066 80.1801 36.6877 80.1151 36.6653 80.0541C36.643 80.0002 36.6137 79.9498 36.6 79.8918V79.8898C36.5828 79.8218 36.5793 79.7497 36.5725 79.6792C36.5656 79.6253 36.5518 79.5713 36.5518 79.5174V79.5139V40.8419L28.561 36.0243L22.7755 32.5425V32.5407ZM37.9317 21.7498L24.157 30.0473L37.9283 38.3448L51.7012 30.0455L37.9283 21.7498H37.9317ZM45.0953 73.533L53.0864 68.7192V32.5407L47.3007 36.0261L39.3081 40.8418V77.0206L45.0953 73.533ZM87.5313 31.5416L73.7578 39.8391L87.5313 48.1366L101.302 39.8373L87.5313 31.5416ZM86.1528 50.6335L78.1602 45.8178L72.375 42.3325V58.7585L80.3657 63.5723L86.1528 67.0593V50.6335ZM54.4609 87.6495L74.6626 75.5799L84.7612 69.5491L70.9985 61.2569L55.1523 70.8039L40.7101 79.5048L54.4609 87.6495Z"
				fill="#FF2D20" />
		</g>
	</g>
	<defs>
		<clipPath id="clip0_59_192">
			<rect width="125" height="129" fill="white" />
		</clipPath>
		<clipPath id="clip1_59_192">
			<rect width="125" height="129" fill="white" />
		</clipPath>
	</defs>
</svg>