<svg width="50" height="50" viewBox="0 0 50 50" fill="none" xmlns="http://www.w3.org/2000/svg">
	<g clip-path="url(#clip0_59_191)">
		<g clip-path="url(#clip1_59_191)">
			<path
				d="M38.2812 0H11.7188C5.24666 0 0 5.24666 0 11.7188V38.2812C0 44.7533 5.24666 50 11.7188 50H38.2812C44.7533 50 50 44.7533 50 38.2812V11.7188C50 5.24666 44.7533 0 38.2812 0Z"
				fill="#0A66C2" />
			<path
				d="M36.0772 42.5166H41.794C42.2254 42.5166 42.5752 42.167 42.5752 41.7355L42.5781 29.657C42.5781 23.3439 41.2178 18.4913 33.8403 18.4913C31.0358 18.3872 28.391 19.8328 26.9639 22.2469C26.9526 22.266 26.9323 22.2777 26.91 22.2777C26.8756 22.2777 26.8477 22.2498 26.8477 22.2154V19.8555C26.8477 19.424 26.4981 19.0742 26.0664 19.0742H20.6412C20.2098 19.0742 19.86 19.424 19.86 19.8555V41.7344C19.86 42.166 20.2098 42.5156 20.6412 42.5156H26.3576C26.7891 42.5156 27.1389 42.166 27.1389 41.7344V30.9193C27.1389 27.8613 27.719 24.8998 31.5102 24.8998C35.2475 24.8998 35.2959 28.399 35.2959 31.1174V41.7353C35.2959 42.1668 35.6457 42.5166 36.0772 42.5166Z"
				fill="white" />
			<path
				d="M7.42188 11.646C7.42188 13.9633 9.32959 15.8699 11.6469 15.8699C13.9637 15.8697 15.8701 13.962 15.8701 11.6451C15.8697 9.32826 13.9631 7.42188 11.646 7.42188C9.32871 7.42188 7.42188 9.32871 7.42188 11.646Z"
				fill="white" />
			<path
				d="M8.78101 42.5166H14.505C14.9365 42.5166 15.2863 42.1668 15.2863 41.7354V19.8555C15.2863 19.4241 14.9365 19.0743 14.505 19.0743H8.78101C8.34954 19.0743 7.99976 19.4241 7.99976 19.8555V41.7354C7.99976 42.1668 8.34954 42.5166 8.78101 42.5166Z"
				fill="white" />
		</g>
	</g>
	<defs>
		<clipPath id="clip0_59_191">
			<rect width="50" height="50" fill="white" />
		</clipPath>
		<clipPath id="clip1_59_191">
			<rect width="50" height="50" fill="white" />
		</clipPath>
	</defs>
</svg>