<svg width="125" height="129" viewBox="0 0 125 129" fill="none" xmlns="http://www.w3.org/2000/svg">
	<g clip-path="url(#clip0_59_108)">
		<path
			d="M95.7031 0H29.2969C13.1167 0 0 13.5364 0 30.2344V98.7656C0 115.464 13.1167 129 29.2969 129H95.7031C111.883 129 125 115.464 125 98.7656V30.2344C125 13.5364 111.883 0 95.7031 0Z"
			fill="#023430" />
		<path
			d="M83.5806 54.2158C78.4356 30.7936 67.7129 24.5582 64.9776 20.1505C63.8496 18.2088 62.8501 16.1905 61.9868 14.1094C61.8423 16.1901 61.5767 17.501 59.8628 19.0789C56.4219 22.2451 41.8075 34.5354 40.5776 61.148C39.4317 85.9614 58.2534 101.261 60.7398 102.843C62.6519 103.814 64.9805 102.864 66.1167 101.972C75.1895 95.5467 87.586 78.4149 83.5903 54.2158"
			fill="#10AA50" />
		<path
			d="M62.7661 89.6303C62.2925 95.7719 61.9531 99.3406 60.75 102.85C60.75 102.85 61.5395 108.697 62.0942 114.891H64.0566C64.5249 110.529 65.2393 106.2 66.1973 101.924C63.6567 100.634 62.8638 95.0196 62.7661 89.6303Z"
			fill="#B8C4C2" />
		<path
			d="M66.1939 101.928C63.6265 100.704 62.8838 94.9707 62.7695 89.6303C63.4043 80.8205 63.5894 71.9825 63.3242 63.1526C63.1895 58.5197 63.3877 20.2407 62.2183 14.6365C63.0186 16.5346 63.9399 18.3756 64.9775 20.1471C67.7129 24.5583 78.439 30.7936 83.5806 54.2158C87.5859 78.3736 75.2568 95.46 66.1939 101.928Z"
			fill="#12924F" />
	</g>
	<defs>
		<clipPath id="clip0_59_108">
			<rect width="125" height="129" fill="white" />
		</clipPath>
	</defs>
</svg>