<svg width="125" height="129" viewBox="0 0 125 129" fill="none" xmlns="http://www.w3.org/2000/svg">
	<g clip-path="url(#clip0_59_179)">
		<g clip-path="url(#clip1_59_179)">
			<path
				d="M95.7031 0H29.2969C13.1167 0 0 13.5364 0 30.2344V98.7656C0 115.464 13.1167 129 29.2969 129H95.7031C111.883 129 125 115.464 125 98.7656V30.2344C125 13.5364 111.883 0 95.7031 0Z"
				fill="#242938" />
			<mask id="mask0_59_179" style="mask-type:luminance" maskUnits="userSpaceOnUse" x="18" y="19" width="89"
				height="91">
				<path d="M106.445 19.1484H18.5547V109.852H106.445V19.1484Z" fill="white" />
			</mask>
			<g mask="url(#mask0_59_179)">
				<path fill-rule="evenodd" clip-rule="evenodd"
					d="M99.5122 89.8012C94.7319 89.6641 91.0234 90.1695 87.9155 91.519C87.0205 91.8898 85.5845 91.8898 85.4663 93.0524C85.9448 93.5401 86.0024 94.3383 86.4219 95.0146C87.1382 96.2416 88.395 97.8944 89.5298 98.752L93.355 101.573C95.686 103.043 98.3159 103.902 100.587 105.373C101.902 106.232 103.217 107.336 104.532 108.256C105.202 108.747 105.608 109.545 106.445 109.85V109.665C106.027 109.115 105.907 108.318 105.49 107.702L103.695 105.926C101.963 103.535 99.8096 101.449 97.4785 99.7341C95.5654 98.3852 91.3828 96.5464 90.6055 94.2794L90.4878 94.1418C91.8008 94.0047 93.355 93.5275 94.6113 93.1597C96.645 92.6099 98.4966 92.7309 100.587 92.1796L103.458 91.3209V90.7712C102.382 89.6681 101.605 88.1962 100.47 87.1551C97.4224 84.4577 94.0728 81.8208 90.6055 79.6142C88.7529 78.3887 86.3613 77.59 84.3892 76.5499C83.6699 76.1816 82.4761 75.9976 82.0581 75.3849C80.9795 74.0385 80.3833 72.2587 79.6064 70.6638L74.7056 59.9971C73.6299 57.6061 72.9707 55.215 71.6577 53.0084C65.5 42.5863 58.8042 36.2726 48.523 30.0798C46.3124 28.7923 43.6824 28.2386 40.8864 27.5653L36.4036 27.318C35.4457 26.8893 34.4904 25.7241 33.6531 25.1717C30.2461 22.965 21.4587 18.1833 18.9467 24.4847C17.3323 28.4694 21.3382 32.3923 22.698 34.4163C23.7162 35.826 25.0292 37.4199 25.7486 39.0138C26.1505 40.0554 26.2845 41.1601 26.7039 42.2635C27.6591 44.9607 28.5567 47.9657 29.8121 50.4803C30.4819 51.7678 31.1853 53.1183 32.0227 54.2823C32.5009 54.9691 33.3383 55.2634 33.5165 56.3665C32.6791 57.5935 32.6215 59.4307 32.1432 60.9656C29.9902 67.8933 30.8276 76.4759 33.8755 81.5764C34.8334 83.1083 37.0909 86.4814 40.1536 85.1929C42.8438 84.0894 42.2436 80.5953 43.0206 77.5295C43.2015 76.7948 43.0809 76.304 43.4386 75.8122V75.9498L45.8903 81.0377C47.7432 84.0415 50.9722 87.1687 53.6606 89.2544C55.0942 90.358 56.2305 92.2597 58.023 92.9329V92.7475H57.9053C57.5459 92.1977 57.0073 91.9503 56.5293 91.5215C55.4536 90.4184 54.2583 89.069 53.4209 87.8435C50.9116 84.4109 48.7011 80.6089 46.7277 76.686C45.7698 74.7857 44.9324 72.7011 44.1581 70.8009C43.7963 70.0647 43.7963 68.9596 43.2001 68.5943C42.3025 69.9407 40.9896 71.1087 40.3291 72.7631C39.193 75.3985 39.0751 78.6482 38.6571 82.0203C38.4159 82.0818 38.5231 82.0203 38.4159 82.1574C36.5054 81.6686 35.8463 79.6429 35.1295 77.9281C33.3369 73.5754 33.0368 66.5867 34.5909 61.5592C35.0089 60.2717 36.8042 56.2254 36.0875 54.9994C35.7257 53.8343 34.5333 53.1611 33.8742 52.2405C33.0971 51.0755 32.2625 49.605 31.7239 48.3175C30.2903 44.8824 29.5736 41.0831 28.0182 37.6494C27.2987 36.0555 26.0447 34.3998 25.0278 32.9296C23.8917 31.2739 22.6391 30.1087 21.7415 28.1479C21.4427 27.4608 21.0247 26.3699 21.503 25.6334C21.6208 25.1429 21.862 24.9463 22.3376 24.8364C23.1147 24.1494 25.3279 25.0206 26.105 25.3861C28.3156 26.3066 30.1684 27.1641 32.0213 28.4502C32.8586 29.063 33.7563 30.2282 34.8321 30.536H36.0888C38.0019 30.9647 40.1522 30.6734 41.9435 31.223C45.112 32.2673 47.9803 33.798 50.5527 35.4551C58.3823 40.5432 64.8399 47.7775 69.2017 56.4229C69.9185 57.8328 70.2173 59.1203 70.8765 60.5917C72.1333 63.597 73.6875 66.6613 74.9399 69.6056C76.1968 72.4869 77.3916 75.4318 79.1846 77.8223C80.082 79.1098 83.667 79.783 85.2803 80.4577C86.4766 81.0075 88.3281 81.5023 89.4067 82.1755C91.4375 83.463 93.4702 84.9344 95.3818 86.3444C96.3369 87.078 99.3276 88.6114 99.5054 89.8344L99.5122 89.8012ZM38.5539 36.5268C37.728 36.5193 36.9047 36.6224 36.1048 36.8332V36.9707H36.2228C36.701 37.9517 37.5384 38.6263 38.1359 39.4852L39.5118 42.4284L39.6297 42.291C40.467 41.6781 40.8864 40.697 40.8864 39.2268C40.5273 38.7981 40.4684 38.368 40.1696 37.9393C39.8106 37.3265 39.0335 37.0187 38.5539 36.5296V36.5268Z"
					fill="white" />
			</g>
		</g>
	</g>
	<defs>
		<clipPath id="clip0_59_179">
			<rect width="125" height="129" fill="white" />
		</clipPath>
		<clipPath id="clip1_59_179">
			<rect width="125" height="129" fill="white" />
		</clipPath>
	</defs>
</svg>