<svg width="125" height="129" viewBox="0 0 125 129" fill="none" xmlns="http://www.w3.org/2000/svg">
	<g clip-path="url(#clip0_59_114)">
		<path
			d="M95.7031 0H29.2969C13.1167 0 0 13.5364 0 30.2344V98.7656C0 115.464 13.1167 129 29.2969 129H95.7031C111.883 129 125 115.464 125 98.7656V30.2344C125 13.5364 111.883 0 95.7031 0Z"
			fill="#242938" />
		<path
			d="M58.5342 15.6797C60.936 14.2609 64.064 14.2546 66.4634 15.6797C78.5347 22.7189 90.6099 29.7472 102.679 36.7906C104.95 38.1102 106.468 40.7175 106.445 43.417V85.7679C106.462 88.5791 104.793 91.2488 102.398 92.5383C90.3667 99.5391 78.3408 106.548 66.311 113.549C63.8604 114.995 60.6694 114.884 58.2944 113.318C54.6875 111.161 51.0742 109.013 47.4669 106.857C46.7296 106.404 45.8986 106.043 45.3782 105.305C45.8382 104.665 46.661 104.586 47.3295 104.306C48.835 103.812 50.2183 103.019 51.6011 102.249C51.9512 102.002 52.3779 102.097 52.7134 102.318C55.7979 104.143 58.8555 106.021 61.9502 107.829C62.6104 108.222 63.2788 107.7 63.8433 107.375C75.6499 100.488 87.4712 93.6283 99.2764 86.7394C99.7139 86.5222 99.9556 86.043 99.9199 85.5487C99.9282 71.5779 99.9219 57.605 99.9243 43.6341C99.9741 43.0731 99.6597 42.5574 99.168 42.3276C87.1782 35.3592 75.1939 28.3802 63.2061 21.4101C62.7808 21.1083 62.2197 21.1075 61.7939 21.4078C49.8057 28.3802 37.8241 35.3657 25.8361 42.3337C25.3463 42.5637 25.0176 43.0711 25.0759 43.6341C25.0779 57.605 25.0759 71.5779 25.0759 85.5507C25.0333 86.045 25.2935 86.5141 25.7278 86.7268C28.9269 88.5988 32.1301 90.4577 35.3312 92.3237C37.1346 93.3249 39.3488 93.9206 41.3357 93.1531C43.089 92.5041 44.318 90.6573 44.2846 88.7364C44.3012 74.8472 44.2763 60.956 44.297 47.0688C44.2534 46.4521 44.8199 45.9427 45.4009 46.0008C46.9381 45.99 48.4771 45.9795 50.0142 46.0051C50.6558 45.99 51.0972 46.654 51.0181 47.2752C51.0117 61.2523 51.0347 75.2297 51.0078 89.2065C51.0117 92.9319 49.5288 96.9853 46.1901 98.8079C42.077 101.006 36.9931 100.54 32.9296 98.432C29.4119 96.62 26.0548 94.4814 22.5995 92.5404C20.1983 91.2579 18.5381 88.5776 18.555 85.7684V43.417C18.5298 40.6616 20.1086 38.007 22.4494 36.7068C34.4792 29.7006 46.5069 22.6889 58.5342 15.6797Z"
			fill="#81CD39" />
		<path
			d="M69.0293 45.0165C74.2759 44.6679 79.8926 44.8101 84.6138 47.4773C88.2695 49.5216 90.2959 53.8117 90.3603 58.0026C90.2583 58.5675 89.6855 58.8794 89.1626 58.8406C87.6406 58.8386 86.1177 58.8623 84.5957 58.8301C83.9497 58.8558 83.5747 58.2415 83.4936 57.6524C83.0561 55.6469 81.9961 53.661 80.1675 52.6935C77.3599 51.2432 74.105 51.3163 71.0434 51.3465C68.8086 51.4685 66.4053 51.6685 64.5117 53.0246C63.0581 54.052 62.6167 56.1261 63.1352 57.7965C63.6245 58.9958 64.9658 59.3828 66.064 59.7396C72.3867 61.4463 79.0869 61.276 85.2891 63.5219C87.8569 64.4375 90.3686 66.2178 91.2476 68.9923C92.3975 72.7112 91.8936 77.1556 89.3296 80.1408C87.2505 82.5973 84.2226 83.9347 81.2026 84.6608C77.185 85.5855 73.0156 85.6091 68.9355 85.1985C65.0991 84.747 61.1064 83.7069 58.145 81.0095C55.6123 78.7399 54.3755 75.2035 54.498 71.791C54.5273 71.2146 55.0835 70.8124 55.6186 70.8598C57.1514 70.8472 58.6846 70.8427 60.2173 70.8623C60.8301 70.817 61.2837 71.3632 61.3154 71.9588C61.5976 73.8691 62.2935 75.8747 63.9082 77.007C67.0234 79.0815 70.9331 78.9394 74.5005 78.9974C77.456 78.8623 80.7739 78.8215 83.1855 76.8054C84.458 75.6555 84.8349 73.7316 84.4912 72.0767C84.1186 70.6794 82.7021 70.0284 81.4858 69.6026C75.2441 67.5653 68.4687 68.3045 62.2876 66.0001C59.7778 65.085 57.3511 63.3546 56.3872 60.694C55.042 56.9283 55.6582 52.2702 58.4907 49.3859C61.2524 46.5166 65.2388 45.4119 69.0293 45.0165Z"
			fill="#81CD39" />
	</g>
	<defs>
		<clipPath id="clip0_59_114">
			<rect width="125" height="129" fill="white" />
		</clipPath>
	</defs>
</svg>