<svg width="125" height="129" viewBox="0 0 125 129" fill="none" xmlns="http://www.w3.org/2000/svg">
	<g clip-path="url(#clip0_59_120)">
		<path
			d="M95.7031 0H29.2969C13.1167 0 0 13.5364 0 30.2344V98.7656C0 115.464 13.1167 129 29.2969 129H95.7031C111.883 129 125 115.464 125 98.7656V30.2344C125 13.5364 111.883 0 95.7031 0Z"
			fill="#242938" />
		<path
			d="M24.0029 50.5146H37.874C41.9453 50.5499 44.8955 51.7613 46.7246 54.1467C48.5537 56.5322 49.1572 59.7905 48.5361 63.9215C48.2949 65.8091 47.7598 67.6605 46.9316 69.4766C46.1377 71.2927 45.0342 72.9304 43.6191 74.3907C41.8936 76.242 40.0478 77.4171 38.0811 77.916C36.1143 78.4149 34.0781 78.6638 31.9736 78.6638H25.7627L23.7959 88.8125H16.6016L24.0029 50.5146ZM30.0586 56.6038L26.9531 72.628C27.1602 72.6633 27.3672 72.6814 27.5742 72.6814C27.8154 72.6814 28.0576 72.6814 28.2988 72.6814C31.6113 72.7167 34.3721 72.3791 36.5801 71.6666C38.7881 70.9188 40.2725 68.3196 41.0312 63.8681C41.6523 60.1291 41.0313 57.9744 39.168 57.405C37.3389 56.8356 35.0449 56.5685 32.2842 56.6038C31.8701 56.6391 31.4736 56.6572 31.0938 56.6572C30.749 56.6572 30.3867 56.6572 30.0068 56.6572L30.0586 56.6038Z"
			fill="white" />
		<path
			d="M56.7314 40.3125H63.874L61.8555 50.5146H68.2734C71.793 50.5861 74.415 51.3339 76.1406 52.758C77.9004 54.182 78.418 56.889 77.6934 60.8769L74.2256 78.6638H66.9795L70.292 61.6781C70.6367 59.8973 70.5332 58.6335 69.9814 57.8857C69.4297 57.1379 68.2393 56.764 66.4102 56.764L60.665 56.7106L56.4209 78.6638H49.2783L56.7314 40.3125Z"
			fill="white" />
		<path
			d="M85.3633 50.5146H99.2344C103.306 50.5499 106.256 51.7613 108.085 54.1467C109.914 56.5322 110.518 59.7905 109.896 63.9215C109.655 65.8091 109.12 67.6605 108.292 69.4766C107.498 71.2927 106.395 72.9304 104.979 74.3907C103.254 76.242 101.408 77.4171 99.4414 77.916C97.4746 78.4149 95.4385 78.6638 93.334 78.6638H87.123L85.1562 88.8125H77.9619L85.3633 50.5146ZM91.4189 56.6038L88.3135 72.628C88.5205 72.6633 88.7275 72.6814 88.9346 72.6814C89.1758 72.6814 89.418 72.6814 89.6592 72.6814C92.9717 72.7167 95.7324 72.3791 97.9404 71.6666C100.148 70.9188 101.633 68.3196 102.392 63.8681C103.013 60.1291 102.392 57.9744 100.528 57.405C98.6992 56.8356 96.4053 56.5685 93.6445 56.6038C93.2305 56.6391 92.834 56.6572 92.4541 56.6572C92.1094 56.6572 91.7471 56.6572 91.3672 56.6572L91.4189 56.6038Z"
			fill="white" />
	</g>
	<defs>
		<clipPath id="clip0_59_120">
			<rect width="125" height="129" fill="white" />
		</clipPath>
	</defs>
</svg>