<svg width="125" height="129" viewBox="0 0 125 129" fill="none" xmlns="http://www.w3.org/2000/svg">
	<g clip-path="url(#clip0_59_136)">
		<path
			d="M95.7031 0H29.2969C13.1167 0 0 13.5364 0 30.2344V98.7656C0 115.464 13.1167 129 29.2969 129H95.7031C111.883 129 125 115.464 125 98.7656V30.2344C125 13.5364 111.883 0 95.7031 0Z"
			fill="#242938" />
		<path
			d="M62.1479 14.6133C37.3567 14.6133 38.9049 25.7083 38.9049 25.7083L38.9325 37.2026H62.5903V40.6537H29.5358C29.5358 40.6537 13.6719 38.797 13.6719 64.6119C13.6719 90.427 27.5182 89.5119 27.5182 89.5119H35.7818V77.5325C35.7818 77.5325 35.3364 63.2433 49.4072 63.2433H72.8711C72.8711 63.2433 86.0542 63.463 86.0542 50.0945V27.99C86.0542 27.99 88.0557 14.6133 62.1479 14.6133ZM49.103 22.3427C51.457 22.3427 53.3594 24.306 53.3594 26.735C53.3594 29.1641 51.457 31.1274 49.103 31.1274C46.7493 31.1274 44.8469 29.1641 44.8469 26.735C44.8469 24.306 46.7493 22.3427 49.103 22.3427Z"
			fill="url(#paint0_linear_59_136)" />
		<path
			d="M62.852 114.869C87.6431 114.869 86.0952 103.775 86.0952 103.775L86.0674 92.2804H62.4097V88.8291H95.4643C95.4643 88.8291 111.328 90.686 111.328 64.8709C111.328 39.0558 97.4819 39.9713 97.4819 39.9713H89.2182V51.9507C89.2182 51.9507 89.6636 66.24 75.5928 66.24H52.1289C52.1289 66.24 38.9456 66.0198 38.9456 79.3884V101.493C38.9456 101.493 36.9441 114.869 62.852 114.869ZM75.897 107.14C73.543 107.14 71.6406 105.177 71.6406 102.748C71.6406 100.319 73.543 98.3554 75.897 98.3554C78.2505 98.3554 80.1533 100.319 80.1533 102.748C80.1533 105.177 78.2505 107.14 75.897 107.14Z"
			fill="url(#paint1_linear_59_136)" />
	</g>
	<defs>
		<linearGradient id="paint0_linear_59_136" x1="23.0566" y1="23.6312" x2="72.9598" y2="71.5044"
			gradientUnits="userSpaceOnUse">
			<stop stop-color="#387EB8" />
			<stop offset="1" stop-color="#366994" />
		</linearGradient>
		<linearGradient id="paint1_linear_59_136" x1="52.7617" y1="55.3818" x2="106.274" y2="104.4"
			gradientUnits="userSpaceOnUse">
			<stop stop-color="#FFE052" />
			<stop offset="1" stop-color="#FFC331" />
		</linearGradient>
		<clipPath id="clip0_59_136">
			<rect width="125" height="129" fill="white" />
		</clipPath>
	</defs>
</svg>