<svg width="125" height="129" viewBox="0 0 125 129" fill="none" xmlns="http://www.w3.org/2000/svg">
	<g clip-path="url(#clip0_59_175)">
		<g clip-path="url(#clip1_59_175)">
			<path
				d="M95.7031 0H29.2969C13.1167 0 0 13.5364 0 30.2344V98.7656C0 115.464 13.1167 129 29.2969 129H95.7031C111.883 129 125 115.464 125 98.7656V30.2344C125 13.5364 111.883 0 95.7031 0Z"
				fill="#242938" />
			<path fill-rule="evenodd" clip-rule="evenodd"
				d="M40.5273 55.4297C43.4566 43.3364 50.7817 37.2891 62.5 37.2891C80.0781 37.2891 82.2754 50.8945 91.0645 53.1621C96.9243 54.6743 102.051 52.4068 106.445 46.3594C103.516 58.4526 96.1909 64.5 84.4727 64.5C66.8945 64.5 64.6973 50.8945 55.9082 48.627C50.0483 47.1148 44.9219 49.3824 40.5273 55.4297ZM18.5547 82.6406C21.4839 70.5474 28.809 64.5 40.5273 64.5C58.1055 64.5 60.3027 78.1055 69.0918 80.373C74.9517 81.8853 80.0781 79.6177 84.4727 73.5703C81.5435 85.6636 74.2183 91.7109 62.5 91.7109C44.9219 91.7109 42.7246 78.1055 33.9355 75.8379C28.0757 74.3257 22.9492 76.5932 18.5547 82.6406Z"
				fill="url(#paint0_linear_59_175)" />
		</g>
	</g>
	<defs>
		<linearGradient id="paint0_linear_59_175" x1="42.2363" y1="37.2891" x2="81.4553" y2="92.3192"
			gradientUnits="userSpaceOnUse">
			<stop stop-color="#32B1C1" />
			<stop offset="1" stop-color="#14C6B7" />
		</linearGradient>
		<clipPath id="clip0_59_175">
			<rect width="125" height="129" fill="white" />
		</clipPath>
		<clipPath id="clip1_59_175">
			<rect width="125" height="129" fill="white" />
		</clipPath>
	</defs>
</svg>